<svg xmlns="http://www.w3.org/2000/svg" width="1282" height="300" viewBox="0 0 1282 300">
  <g fill="none" fill-rule="evenodd">
    <polygon fill="#FFFFFF" points="1265.862 254.118 1281.457 254.118 1281.457 85.604 1265.862 85.604"/>
    <polygon fill="#FFFFFF" points="1215.862 254.118 1231.457 254.118 1231.457 85.604 1215.862 85.604"/>
    <path fill="#FFFFFF" d="M1173.84043,213.778723 L1186.98936,220.707447 C1182.68085,229.202128 1177.69149,236.053191 1172.04255,241.269149 C1166.39362,246.48617 1160.03191,250.448936 1152.97872,253.169149 C1145.91489,255.887234 1137.92553,257.248936 1129,257.248936 C1109.2234,257.248936 1093.76596,250.75 1082.60638,237.747872 C1071.45745,224.745745 1065.88298,210.053191 1065.88298,193.66383 C1065.88298,178.242553 1070.60638,164.498936 1080.04255,152.428723 C1092.01064,137.084043 1108.03191,129.409574 1128.10638,129.409574 C1148.7766,129.409574 1165.2766,137.270213 1177.61702,152.988298 C1186.38298,164.088298 1190.85106,177.945745 1191,194.557447 L1081.92553,194.557447 C1082.2234,208.680851 1086.7234,220.255319 1095.42553,229.285106 C1104.12766,238.320213 1114.87234,242.831915 1127.65957,242.831915 C1133.82979,242.831915 1139.84043,241.757447 1145.67021,239.607447 C1151.51064,237.453191 1156.46809,234.594681 1160.56383,231.032979 C1164.65957,227.469149 1169.08511,221.721277 1173.84043,213.778723 Z M1173.84043,181.038298 C1171.75532,172.692553 1168.7234,166.025532 1164.74468,161.034043 C1160.76596,156.043617 1155.51064,152.021277 1148.96809,148.964894 C1142.41489,145.912766 1135.54255,144.384043 1128.32979,144.384043 C1116.42553,144.384043 1106.20213,148.22234 1097.64894,155.893617 C1091.40426,161.479787 1086.68085,169.862766 1083.48936,181.038298 L1173.84043,181.038298 L1173.84043,181.038298 Z"/>
    <polygon fill="#FFFFFF" points="880.382 89.176 914.482 209.832 962.336 89.176 965.8 89.176 1013.099 209.832 1047.781 89.176 1064.787 89.176 1016.823 256.614 1013.724 256.614 964.188 129.926 913.687 256.614 910.572 256.614 863.245 89.176"/>
    <polyline fill="#FFFFFF" points="731.697 132.539 748.187 132.539 789.841 226.161 830.296 132.539 846.897 132.539 774.59 298.595 758.115 298.595 781.45 244.913 731.697 132.539"/>
    <polygon fill="#FFFFFF" points="695.65 254.118 711.248 254.118 711.248 85.604 695.65 85.604"/>
    <path fill="#FFFFFF" d="M614.945745 132.539362L630.876596 132.539362 630.876596 150.305319C635.629787 143.304255 640.642553 138.071277 645.917021 134.605319 651.188298 131.142553 656.68617 129.409574 662.407447 129.409574 666.711702 129.409574 671.318085 130.789362 676.220213 133.543617L668.088298 146.728723C664.819149 145.31383 662.07234 144.607447 659.844681 144.607447 654.641489 144.607447 649.629787 146.75 644.804255 151.031915 639.974468 155.317021 636.297872 161.96383 633.773404 170.980851 631.841489 177.907447 630.876596 191.914894 630.876596 212.994681L630.876596 254.118085 614.945745 254.118085 614.945745 132.539362M574.614894 213.778723L587.759574 220.707447C583.45 229.202128 578.469149 236.053191 572.817021 241.269149 567.168085 246.48617 560.810638 250.448936 553.748936 253.169149 546.68617 255.887234 538.694681 257.248936 529.773404 257.248936 509.997872 257.248936 494.538298 250.75 483.382979 237.747872 472.230851 224.745745 466.655319 210.053191 466.655319 193.66383 466.655319 178.242553 471.376596 164.498936 480.817021 152.428723 492.787234 137.084043 508.804255 129.409574 528.879787 129.409574 549.547872 129.409574 566.048936 137.270213 578.390426 152.988298 587.160638 164.088298 591.620213 177.945745 591.771277 194.557447L482.697872 194.557447C482.996809 208.680851 487.494681 220.255319 496.194681 229.285106 504.896809 238.320213 515.642553 242.831915 528.434043 242.831915 534.606383 242.831915 540.608511 241.757447 546.445745 239.607447 552.284043 237.453191 557.246809 234.594681 561.338298 231.032979 565.428723 227.469149 569.854255 221.721277 574.614894 213.778723zM574.614894 181.038298C572.532979 172.692553 569.5 166.025532 565.52234 161.034043 561.542553 156.043617 556.282979 152.021277 549.738298 148.964894 543.191489 145.912766 536.315957 144.384043 529.102128 144.384043 517.2 144.384043 506.976596 148.22234 498.425532 155.893617 492.178723 161.479787 487.455319 169.862766 484.260638 181.038298L574.614894 181.038298 574.614894 181.038298z"/>
    <polyline fill="#FFFFFF" points="347.401 132.539 364.001 132.539 404.689 221.164 444.884 132.539 461.597 132.539 406.114 254.118 403.218 254.118 347.401 132.539"/>
    <polyline fill="#FFFFFF" points="239.22 89.739 333.139 89.739 333.139 105.831 255.599 105.831 255.599 157.345 332.471 157.345 332.471 173.438 255.599 173.438 255.599 238.028 332.471 238.028 332.471 254.118 239.22 254.118 239.22 89.739"/>
    <g fill="#7BB742">
      <path d="M167.052128 290.165957C152.403191 296.554255 136.258511 299.905319 119.941489 299.998936 103.626596 300.069149 87.1297872 296.87234 71.793617 290.444681 64.1085106 287.270213 56.7446809 283.253191 49.8191489 278.545745 42.8957447 273.838298 36.3787234 268.458511 30.5117021 262.426596 24.5595745 256.387234 19.1712766 249.469149 14.75 242.032979 10.3148936 234.57766 6.85106383 226.521277 4.37021277 218.162766-.636170213 201.438298-1.31382979 183.42234 2.19574468 166.204255 5.66382979 148.964894 13.6234043 132.604255 24.8968085 119.02234 27.7085106 115.619149 30.762766 112.426596 33.9797872 109.419149L35.1946809 108.301064 36.4425532 107.193617C37.0702128 106.62766 38.1680851 105.718085 39.0595745 104.981915 40.8276596 103.555319 42.6478723 102.190426 44.5148936 100.887234 51.993617 95.7 60.287234 91.656383 68.9904255 88.9659574 86.4276596 83.637234 105.405319 83.8138298 122.697872 89.4393617 131.330851 92.2744681 139.529787 96.4393617 146.902128 101.740426 150.587234 104.391489 154.064894 107.320213 157.302128 110.485106 160.541489 113.67766 163.474468 116.961702 166.306383 120.908511 171.778723 128.515957 175.795745 137.182979 178.028723 146.253191 180.298936 155.319149 180.726596 164.779787 179.435106 173.951064 178.141489 183.120213 175.130851 192.02766 170.544681 200.012766 165.92766 208.006383 159.865957 214.982979 152.654255 220.648936 145.180851 226.506383 136.368085 230.375532 127.209574 232.021277 118.06383 233.671277 108.607447 233.123404 99.8765957 230.385106 91.1446809 227.678723 83.1053191 222.890426 76.7382979 216.534043 75.1414894 214.95 73.6595745 213.27234 72.2670213 211.521277 70.8085106 209.680851 69.5319149 207.792553 68.3851064 205.789362 66.0957447 201.797872 64.3978723 197.490426 63.4170213 193.052128 61.45 184.17766 62.1797872 174.87766 65.4382979 166.680851 68.7117021 158.470213 74.306383 151.442553 81.5106383 146.696809 88.7787234 141.9 97.7085106 140.215957 105.818085 141.702128 113.932979 143.2 121.234043 147.746809 125.755319 154.093617 122.892553 151.470213 119.626596 149.396809 116.161702 147.991489 112.690426 146.590426 109.014894 145.87234 105.394681 145.839362 98.1446809 145.698936 91.1617021 148.340426 86.0638298 152.846809 80.95 157.442553 77.2138298 163.610638 75.6159574 170.089362 73.9638298 176.576596 74.2585106 183.420213 76.4021277 189.47234 77.4638298 192.501064 78.9244681 195.345745 80.7797872 197.887234 81.6946809 199.154255 82.7308511 200.375532 83.8010638 201.459574 84.9468085 202.625532 86.1531915 203.734043 87.4180851 204.745745 92.462766 208.820213 98.356383 211.65 104.541489 212.93617 110.714894 214.220213 117.117021 214.091489 123.069149 212.511702 129.019149 210.961702 134.497872 207.912766 138.965957 203.961702 148.437234 195.498936 154.359574 183.447872 155.444681 171.056383 156.542553 158.646809 152.978723 146.047872 145.442553 136.45 143.687234 134.168085 141.384043 131.728723 139.076596 129.543617 136.739362 127.356383 134.246809 125.348936 131.620213 123.543617 126.367021 119.938298 120.571277 117.156383 114.494681 115.306383 102.374468 111.485106 89.0829787 111.468085 76.9978723 115.239362 70.9393617 117.064894 65.1691489 119.823404 59.9255319 123.404255 58.6180851 124.306383 57.3393617 125.247872 56.093617 126.237234 55.5 126.735106 55.0893617 127.034043 54.2734043 127.754255L53.3478723 128.561702 52.4244681 129.401064C49.9744681 131.647872 47.6851064 134.058511 45.5 136.554255 36.7691489 146.565957 30.6425532 158.779787 27.5159574 171.793617 24.3648936 184.81383 24.4521277 198.651064 27.606383 211.794681 29.1925532 218.370213 31.6223404 224.747872 34.7393617 230.793617 37.8595745 236.867021 41.6819149 242.511702 46.2606383 247.788298 50.8808511 253.110638 55.9361702 258.090426 61.4893617 262.495745 67.0329787 266.91383 73.0297872 270.789362 79.3446809 274.135106 92.0042553 280.764894 106.055319 285.057447 120.576596 286.57766 135.093617 288.154255 150.068085 286.947872 164.515957 282.98617 178.956383 278.998936 192.864894 272.244681 205.361702 263.03617 194.838298 274.454255 181.726596 283.843617 167.052128 290.165957zM115.437234 62.6106383C115.437234 62.6106383 103.679787 13.8574468 164.044681 13.8574468 164.044681 13.8574468 173.37766 70.737234 113.607447 70.737234 113.607447 70.737234 132.176596 65.2468085 146.737234 33.4585106 146.737234 33.4585106 131.901064 57.106383 115.437234 62.6106383M101.503191 60.6968085C101.503191 60.6968085 116.035106.453191489 41.4414894.453191489 41.4414894.453191489 29.9095745 70.737234 103.764894 70.737234 103.764894 70.737234 80.8191489 63.9521277 62.8255319 24.6734043 62.8255319 24.6734043 81.1606383 53.893617 101.503191 60.6968085"/>
    </g>
  </g>
</svg>
